<svg width="26" height="26" viewBox="0 0 26 26" fill="none" xmlns="http://www.w3.org/2000/svg">
<path d="M5.0625 19.8125C6.29167 18.9306 7.55555 18.2483 8.85416 17.7656C10.1528 17.283 11.5347 17.0417 13 17.0417C14.4653 17.0417 15.8507 17.283 17.1563 17.7656C18.4618 18.2483 19.7292 18.9306 20.9583 19.8125C21.8125 18.7778 22.4358 17.6979 22.8281 16.5729C23.2205 15.4479 23.4167 14.2569 23.4167 13C23.4167 10.0625 22.4149 7.59201 20.4115 5.58853C18.408 3.58505 15.9375 2.58331 13 2.58331C10.0625 2.58331 7.59201 3.58505 5.58853 5.58853C3.58505 7.59201 2.58331 10.0625 2.58331 13C2.58331 14.2569 2.78297 15.4479 3.18228 16.5729C3.58159 17.6979 4.20833 18.7778 5.0625 19.8125ZM12.9961 14.0417C11.7834 14.0417 10.7622 13.6254 9.93228 12.793C9.10243 11.9606 8.6875 10.938 8.6875 9.72528C8.6875 8.51259 9.10372 7.49132 9.93616 6.66147C10.7686 5.83159 11.7912 5.41666 13.0039 5.41666C14.2166 5.41666 15.2378 5.83289 16.0677 6.66535C16.8976 7.49778 17.3125 8.52034 17.3125 9.73303C17.3125 10.9457 16.8963 11.967 16.0638 12.7969C15.2314 13.6267 14.2088 14.0417 12.9961 14.0417ZM13.0098 25.5C11.288 25.5 9.66668 25.1719 8.14584 24.5156C6.62501 23.8594 5.29861 22.9653 4.16666 21.8333C3.03472 20.7014 2.14063 19.3766 1.48438 17.859C0.828125 16.3414 0.5 14.7199 0.5 12.9945C0.5 11.269 0.828125 9.6493 1.48438 8.13541C2.14063 6.62153 3.03472 5.29862 4.16666 4.16666C5.29861 3.03472 6.62339 2.14063 8.14097 1.48438C9.65855 0.828125 11.2801 0.5 13.0055 0.5C14.731 0.5 16.3507 0.828125 17.8646 1.48438C19.3785 2.14063 20.7014 3.03472 21.8333 4.16666C22.9653 5.29862 23.8594 6.62176 24.5156 8.13609C25.1719 9.65043 25.5 11.2685 25.5 12.9903C25.5 14.712 25.1719 16.3333 24.5156 17.8542C23.8594 19.375 22.9653 20.7014 21.8333 21.8333C20.7014 22.9653 19.3782 23.8594 17.8639 24.5156C16.3496 25.1719 14.7315 25.5 13.0098 25.5ZM13 23.4167C14.1319 23.4167 15.2257 23.2518 16.2813 22.9219C17.3368 22.592 18.3542 22.0486 19.3333 21.2917C18.3542 20.5903 17.3333 20.0538 16.2708 19.6823C15.2083 19.3108 14.1181 19.125 13 19.125C11.8819 19.125 10.7917 19.3108 9.72916 19.6823C8.66666 20.0538 7.64582 20.5903 6.66666 21.2917C7.64582 22.0486 8.66319 22.592 9.71875 22.9219C10.7743 23.2518 11.8681 23.4167 13 23.4167ZM13 11.9583C13.6528 11.9583 14.1875 11.75 14.6042 11.3333C15.0209 10.9167 15.2292 10.3819 15.2292 9.72916C15.2292 9.07639 15.0209 8.54167 14.6042 8.125C14.1875 7.70833 13.6528 7.5 13 7.5C12.3472 7.5 11.8125 7.70833 11.3958 8.125C10.9791 8.54167 10.7708 9.07639 10.7708 9.72916C10.7708 10.3819 10.9791 10.9167 11.3958 11.3333C11.8125 11.75 12.3472 11.9583 13 11.9583Z" fill="#FF922D" fill-opacity="0.8"/>
</svg>
